<svg xmlns="http://www.w3.org/2000/svg" viewBox="0 0 500 500">
  <g fill="#007bff">
    <path d="M103.6 130.5h30.8v178.1h-30.8zM142.2 269.7h99.6v30.8h-99.6zM204.9 130.5h30.8v178.1h-30.8zM271.9 130.5h30.8v39.9h34.8v30.8h-34.8v107.4h-30.8zM356.7 193.1H347v-30.8h9.7c23.4 0 42.5 19 42.5 42.5v55.4c0 23.4-19 42.5-42.5 42.5H347v-30.8h9.7c6.5 0 11.7-5.3 11.7-11.7v-55.4c0-6.4-5.3-11.7-11.7-11.7z"/>
  </g>
  <path fill="none" stroke="#6c757d" stroke-width="8" stroke-linecap="round" stroke-linejoin="round" d="M59 369.5h370M157.2 369.5l29.4-29.4M196 369.5l29.4-29.4M234.9 369.5l29.4-29.4M273.7 369.5l29.4-29.4M312.6 369.5l29.4-29.4M351.4 369.5l29.4-29.4M127.8 369.5l29.4-29.4M88.9 369.5l29.4-29.4"/>
</svg>